{
    "asset" : {
        "generator" : "Khronos glTF Blender I/O v3.2.43",
        "version" : "2.0"
    },
    "scene" : 0,
    "scenes" : [
        {
            "name" : "Scene",
            "nodes" : [
                0
            ]
        }
    ],
    "nodes" : [
        {
            "mesh" : 0,
            "name" : "Cat_Base_1.002",
            "scale" : [
                0.10061877965927124,
                0.10061877965927124,
                0.10061877965927124
            ]
        }
    ],
    "materials" : [
        {
            "doubleSided" : true,
            "name" : "Himalayan",
            "pbrMetallicRoughness" : {
                "baseColorTexture" : {
                    "index" : 0
                },
                "metallicFactor" : 0
            }
        }
    ],
    "meshes" : [
        {
            "name" : "Cat_Base_1.007",
            "primitives" : [
                {
                    "attributes" : {
                        "POSITION" : 0,
                        "NORMAL" : 1,
                        "TEXCOORD_0" : 2,
                        "TEXCOORD_1" : 3
                    },
                    "indices" : 4,
                    "material" : 0
                }
            ]
        }
    ],
    "textures" : [
        {
            "sampler" : 0,
            "source" : 0
        }
    ],
    "images" : [
        {
            "mimeType" : "image/png",
            "name" : "HimalayanColor",
            "uri" : "HimalayanColor.png"
        }
    ],
    "accessors" : [
        {
            "bufferView" : 0,
            "componentType" : 5126,
            "count" : 22883,
            "max" : [
                7.672689437866211,
                37.61247253417969,
                22.25811767578125
            ],
            "min" : [
                -7.672689437866211,
                0.005438164342194796,
                -39.04618835449219
            ],
            "type" : "VEC3"
        },
        {
            "bufferView" : 1,
            "componentType" : 5126,
            "count" : 22883,
            "type" : "VEC3"
        },
        {
            "bufferView" : 2,
            "componentType" : 5126,
            "count" : 22883,
            "type" : "VEC2"
        },
        {
            "bufferView" : 3,
            "componentType" : 5126,
            "count" : 22883,
            "type" : "VEC2"
        },
        {
            "bufferView" : 4,
            "componentType" : 5123,
            "count" : 106668,
            "type" : "SCALAR"
        }
    ],
    "bufferViews" : [
        {
            "buffer" : 0,
            "byteLength" : 274596,
            "byteOffset" : 0
        },
        {
            "buffer" : 0,
            "byteLength" : 274596,
            "byteOffset" : 274596
        },
        {
            "buffer" : 0,
            "byteLength" : 183064,
            "byteOffset" : 549192
        },
        {
            "buffer" : 0,
            "byteLength" : 183064,
            "byteOffset" : 732256
        },
        {
            "buffer" : 0,
            "byteLength" : 213336,
            "byteOffset" : 915320
        }
    ],
    "samplers" : [
        {
            "magFilter" : 9729,
            "minFilter" : 9987
        }
    ],
    "buffers" : [
        {
            "byteLength" : 1128656,
            "uri" : "Colourpoint(Himalayan).bin"
        }
    ]
}
