{
    "asset" : {
        "generator" : "Khronos glTF Blender I/O v3.2.43",
        "version" : "2.0"
    },
    "scene" : 0,
    "scenes" : [
        {
            "name" : "Scene",
            "nodes" : [
                0
            ]
        }
    ],
    "nodes" : [
        {
            "mesh" : 0,
            "name" : "Cat_Base_1.002",
            "scale" : [
                0.10095914453268051,
                0.10095914453268051,
                0.10095914453268051
            ],
            "translation" : [
                0,
                0,
                0.9208225011825562
            ]
        }
    ],
    "materials" : [
        {
            "doubleSided" : true,
            "name" : "Cat.003",
            "pbrMetallicRoughness" : {
                "baseColorTexture" : {
                    "index" : 0
                },
                "metallicFactor" : 0
            }
        }
    ],
    "meshes" : [
        {
            "name" : "Cat_Base_1.003",
            "primitives" : [
                {
                    "attributes" : {
                        "POSITION" : 0,
                        "NORMAL" : 1,
                        "TEXCOORD_0" : 2
                    },
                    "indices" : 3,
                    "material" : 0
                }
            ]
        }
    ],
    "textures" : [
        {
            "sampler" : 0,
            "source" : 0
        }
    ],
    "images" : [
        {
            "mimeType" : "image/png",
            "name" : "Image_0",
            "uri" : "Image_0.png"
        }
    ],
    "accessors" : [
        {
            "bufferView" : 0,
            "componentType" : 5126,
            "count" : 5395,
            "max" : [
                6.280420780181885,
                37.634071350097656,
                22.259105682373047
            ],
            "min" : [
                -6.279836654663086,
                -0.002368080662563443,
                -38.62395095825195
            ],
            "type" : "VEC3"
        },
        {
            "bufferView" : 1,
            "componentType" : 5126,
            "count" : 5395,
            "type" : "VEC3"
        },
        {
            "bufferView" : 2,
            "componentType" : 5126,
            "count" : 5395,
            "type" : "VEC2"
        },
        {
            "bufferView" : 3,
            "componentType" : 5123,
            "count" : 21942,
            "type" : "SCALAR"
        }
    ],
    "bufferViews" : [
        {
            "buffer" : 0,
            "byteLength" : 64740,
            "byteOffset" : 0
        },
        {
            "buffer" : 0,
            "byteLength" : 64740,
            "byteOffset" : 64740
        },
        {
            "buffer" : 0,
            "byteLength" : 43160,
            "byteOffset" : 129480
        },
        {
            "buffer" : 0,
            "byteLength" : 43884,
            "byteOffset" : 172640
        }
    ],
    "samplers" : [
        {
            "magFilter" : 9729,
            "minFilter" : 9987
        }
    ],
    "buffers" : [
        {
            "byteLength" : 216524,
            "uri" : "AmericanShorthair.bin"
        }
    ]
}
