{
    "asset" : {
        "generator" : "Khronos glTF Blender I/O v3.2.43",
        "version" : "2.0"
    },
    "scene" : 0,
    "scenes" : [
        {
            "name" : "Scene",
            "nodes" : [
                0
            ]
        }
    ],
    "nodes" : [
        {
            "mesh" : 0,
            "name" : "Cat_Base_1.002",
            "scale" : [
                0.11321140825748444,
                0.11321140825748444,
                0.11321140825748444
            ],
            "translation" : [
                0,
                0,
                0.8226937055587769
            ]
        }
    ],
    "materials" : [
        {
            "doubleSided" : true,
            "name" : "Cat.009",
            "pbrMetallicRoughness" : {
                "baseColorTexture" : {
                    "index" : 0
                },
                "metallicFactor" : 0
            }
        }
    ],
    "meshes" : [
        {
            "name" : "Cat_Base_1.010",
            "primitives" : [
                {
                    "attributes" : {
                        "POSITION" : 0,
                        "NORMAL" : 1,
                        "TEXCOORD_0" : 2
                    },
                    "indices" : 3,
                    "material" : 0
                }
            ]
        }
    ],
    "textures" : [
        {
            "sampler" : 0,
            "source" : 0
        }
    ],
    "images" : [
        {
            "mimeType" : "image/png",
            "name" : "Image_0",
            "uri" : "Image_0.png"
        }
    ],
    "accessors" : [
        {
            "bufferView" : 0,
            "componentType" : 5126,
            "count" : 22842,
            "max" : [
                6.4727277755737305,
                38.24528121948242,
                22.23584747314453
            ],
            "min" : [
                -6.4727277755737305,
                -0.005635928828269243,
                -38.171165466308594
            ],
            "type" : "VEC3"
        },
        {
            "bufferView" : 1,
            "componentType" : 5126,
            "count" : 22842,
            "type" : "VEC3"
        },
        {
            "bufferView" : 2,
            "componentType" : 5126,
            "count" : 22842,
            "type" : "VEC2"
        },
        {
            "bufferView" : 3,
            "componentType" : 5123,
            "count" : 25041,
            "type" : "SCALAR"
        }
    ],
    "bufferViews" : [
        {
            "buffer" : 0,
            "byteLength" : 274104,
            "byteOffset" : 0
        },
        {
            "buffer" : 0,
            "byteLength" : 274104,
            "byteOffset" : 274104
        },
        {
            "buffer" : 0,
            "byteLength" : 182736,
            "byteOffset" : 548208
        },
        {
            "buffer" : 0,
            "byteLength" : 50082,
            "byteOffset" : 730944
        }
    ],
    "samplers" : [
        {
            "magFilter" : 9729,
            "minFilter" : 9987
        }
    ],
    "buffers" : [
        {
            "byteLength" : 781028,
            "uri" : "EgyptianMau.bin"
        }
    ]
}
