{
    "asset" : {
        "generator" : "Khronos glTF Blender I/O v3.2.43",
        "version" : "2.0"
    },
    "scene" : 0,
    "scenes" : [
        {
            "name" : "Scene",
            "nodes" : [
                0
            ]
        }
    ],
    "nodes" : [
        {
            "mesh" : 0,
            "name" : "high_poly",
            "rotation" : [
                0,
                -0.7071068286895752,
                0,
                0.7071067094802856
            ],
            "scale" : [
                0.27719587087631226,
                0.2771960496902466,
                0.27719587087631226
            ],
            "translation" : [
                0,
                0,
                0.17418311536312103
            ]
        }
    ],
    "materials" : [
        {
            "doubleSided" : true,
            "name" : "Egyptian.002",
            "pbrMetallicRoughness" : {
                "baseColorTexture" : {
                    "index" : 0
                },
                "metallicFactor" : 0,
                "roughnessFactor" : 0.71100914478302
            }
        }
    ],
    "meshes" : [
        {
            "name" : "Cube.007",
            "primitives" : [
                {
                    "attributes" : {
                        "POSITION" : 0,
                        "NORMAL" : 1,
                        "TEXCOORD_0" : 2
                    },
                    "indices" : 3,
                    "material" : 0
                }
            ]
        }
    ],
    "textures" : [
        {
            "sampler" : 0,
            "source" : 0
        }
    ],
    "images" : [
        {
            "mimeType" : "image/png",
            "name" : "EgyptianColor",
            "uri" : "EgyptianColor.png"
        }
    ],
    "accessors" : [
        {
            "bufferView" : 0,
            "componentType" : 5126,
            "count" : 3827,
            "max" : [
                6.982350826263428,
                8.462529182434082,
                1.6222347021102905
            ],
            "min" : [
                -9.116850852966309,
                -0.015290562063455582,
                -1.6223125457763672
            ],
            "type" : "VEC3"
        },
        {
            "bufferView" : 1,
            "componentType" : 5126,
            "count" : 3827,
            "type" : "VEC3"
        },
        {
            "bufferView" : 2,
            "componentType" : 5126,
            "count" : 3827,
            "type" : "VEC2"
        },
        {
            "bufferView" : 3,
            "componentType" : 5123,
            "count" : 18984,
            "type" : "SCALAR"
        }
    ],
    "bufferViews" : [
        {
            "buffer" : 0,
            "byteLength" : 45924,
            "byteOffset" : 0
        },
        {
            "buffer" : 0,
            "byteLength" : 45924,
            "byteOffset" : 45924
        },
        {
            "buffer" : 0,
            "byteLength" : 30616,
            "byteOffset" : 91848
        },
        {
            "buffer" : 0,
            "byteLength" : 37968,
            "byteOffset" : 122464
        }
    ],
    "samplers" : [
        {
            "magFilter" : 9729,
            "minFilter" : 9987
        }
    ],
    "buffers" : [
        {
            "byteLength" : 160432,
            "uri" : "EgyptianMau.bin"
        }
    ]
}
