{
    "asset" : {
        "generator" : "Khronos glTF Blender I/O v3.2.43",
        "version" : "2.0"
    },
    "scene" : 0,
    "scenes" : [
        {
            "name" : "Scene",
            "nodes" : [
                0
            ]
        }
    ],
    "nodes" : [
        {
            "mesh" : 0,
            "name" : "Cat_Base_1.002",
            "scale" : [
                0.11223140358924866,
                0.11223140358924866,
                0.11223140358924866
            ],
            "translation" : [
                0,
                0,
                0.90458744764328
            ]
        }
    ],
    "materials" : [
        {
            "doubleSided" : true,
            "name" : "Cat.002",
            "pbrMetallicRoughness" : {
                "baseColorTexture" : {
                    "index" : 0
                },
                "metallicFactor" : 0
            }
        }
    ],
    "meshes" : [
        {
            "name" : "Cat_Base_1.001",
            "primitives" : [
                {
                    "attributes" : {
                        "POSITION" : 0,
                        "NORMAL" : 1,
                        "TEXCOORD_0" : 2,
                        "TEXCOORD_1" : 3
                    },
                    "indices" : 4,
                    "material" : 0
                }
            ]
        }
    ],
    "textures" : [
        {
            "sampler" : 0,
            "source" : 0
        }
    ],
    "images" : [
        {
            "mimeType" : "image/png",
            "name" : "Image_0",
            "uri" : "Image_0.png"
        }
    ],
    "accessors" : [
        {
            "bufferView" : 0,
            "componentType" : 5126,
            "count" : 17266,
            "max" : [
                6.279422283172607,
                38.717899322509766,
                21.843116760253906
            ],
            "min" : [
                -6.288061141967773,
                -1.6724562644958496,
                -38.62395095825195
            ],
            "type" : "VEC3"
        },
        {
            "bufferView" : 1,
            "componentType" : 5126,
            "count" : 17266,
            "type" : "VEC3"
        },
        {
            "bufferView" : 2,
            "componentType" : 5126,
            "count" : 17266,
            "type" : "VEC2"
        },
        {
            "bufferView" : 3,
            "componentType" : 5126,
            "count" : 17266,
            "type" : "VEC2"
        },
        {
            "bufferView" : 4,
            "componentType" : 5123,
            "count" : 18498,
            "type" : "SCALAR"
        }
    ],
    "bufferViews" : [
        {
            "buffer" : 0,
            "byteLength" : 207192,
            "byteOffset" : 0
        },
        {
            "buffer" : 0,
            "byteLength" : 207192,
            "byteOffset" : 207192
        },
        {
            "buffer" : 0,
            "byteLength" : 138128,
            "byteOffset" : 414384
        },
        {
            "buffer" : 0,
            "byteLength" : 138128,
            "byteOffset" : 552512
        },
        {
            "buffer" : 0,
            "byteLength" : 36996,
            "byteOffset" : 690640
        }
    ],
    "samplers" : [
        {
            "magFilter" : 9729,
            "minFilter" : 9987
        }
    ],
    "buffers" : [
        {
            "byteLength" : 727636,
            "uri" : "AbyssinianCat.bin"
        }
    ]
}
