{
    "asset" : {
        "generator" : "Khronos glTF Blender I/O v3.2.43",
        "version" : "2.0"
    },
    "scene" : 0,
    "scenes" : [
        {
            "name" : "Scene",
            "nodes" : [
                0
            ]
        }
    ],
    "nodes" : [
        {
            "mesh" : 0,
            "name" : "v_body",
            "scale" : [
                0.15145069360733032,
                0.15145066380500793,
                0.15145070850849152
            ],
            "translation" : [
                0,
                0,
                -0.03134914115071297
            ]
        }
    ],
    "materials" : [
        {
            "doubleSided" : true,
            "name" : "\u6ce2\u65af\u732b.001",
            "pbrMetallicRoughness" : {
                "baseColorTexture" : {
                    "index" : 0
                },
                "roughnessFactor" : 0.858578622341156
            }
        }
    ],
    "meshes" : [
        {
            "name" : "Mesh.002",
            "primitives" : [
                {
                    "attributes" : {
                        "POSITION" : 0,
                        "NORMAL" : 1,
                        "TEXCOORD_0" : 2
                    },
                    "indices" : 3,
                    "material" : 0
                }
            ]
        }
    ],
    "textures" : [
        {
            "sampler" : 0,
            "source" : 0
        }
    ],
    "images" : [
        {
            "mimeType" : "image/png",
            "name" : "Image_0",
            "uri" : "Image_0.png"
        }
    ],
    "accessors" : [
        {
            "bufferView" : 0,
            "componentType" : 5126,
            "count" : 2420,
            "max" : [
                5.2296061515808105,
                18.901329040527344,
                10.21405029296875
            ],
            "min" : [
                -5.2296061515808105,
                1.36607825756073,
                -21.08233642578125
            ],
            "type" : "VEC3"
        },
        {
            "bufferView" : 1,
            "componentType" : 5126,
            "count" : 2420,
            "type" : "VEC3"
        },
        {
            "bufferView" : 2,
            "componentType" : 5126,
            "count" : 2420,
            "type" : "VEC2"
        },
        {
            "bufferView" : 3,
            "componentType" : 5123,
            "count" : 3240,
            "type" : "SCALAR"
        }
    ],
    "bufferViews" : [
        {
            "buffer" : 0,
            "byteLength" : 29040,
            "byteOffset" : 0
        },
        {
            "buffer" : 0,
            "byteLength" : 29040,
            "byteOffset" : 29040
        },
        {
            "buffer" : 0,
            "byteLength" : 19360,
            "byteOffset" : 58080
        },
        {
            "buffer" : 0,
            "byteLength" : 6480,
            "byteOffset" : 77440
        }
    ],
    "samplers" : [
        {
            "magFilter" : 9729,
            "minFilter" : 9987
        }
    ],
    "buffers" : [
        {
            "byteLength" : 83920,
            "uri" : "Angora.bin"
        }
    ]
}
