{
    "asset" : {
        "generator" : "Khronos glTF Blender I/O v3.2.43",
        "version" : "2.0"
    },
    "scene" : 0,
    "scenes" : [
        {
            "name" : "Scene",
            "nodes" : [
                0
            ]
        }
    ],
    "nodes" : [
        {
            "mesh" : 0,
            "name" : "Cat_Base_1.001",
            "scale" : [
                0.11093825846910477,
                0.11093825846910477,
                0.11093825846910477
            ],
            "translation" : [
                0,
                0,
                0.9713670015335083
            ]
        }
    ],
    "materials" : [
        {
            "doubleSided" : true,
            "name" : "Cat.008",
            "pbrMetallicRoughness" : {
                "baseColorTexture" : {
                    "index" : 0
                },
                "metallicFactor" : 0
            }
        }
    ],
    "meshes" : [
        {
            "name" : "Cat_Base_1.009",
            "primitives" : [
                {
                    "attributes" : {
                        "POSITION" : 0,
                        "NORMAL" : 1,
                        "TEXCOORD_0" : 2,
                        "TEXCOORD_1" : 3
                    },
                    "indices" : 4,
                    "material" : 0
                }
            ]
        }
    ],
    "textures" : [
        {
            "sampler" : 0,
            "source" : 0
        }
    ],
    "images" : [
        {
            "mimeType" : "image/png",
            "name" : "Image_0",
            "uri" : "Image_0.png"
        }
    ],
    "accessors" : [
        {
            "bufferView" : 0,
            "componentType" : 5126,
            "count" : 18954,
            "max" : [
                10.822802543640137,
                33.42613983154297,
                21.936216354370117
            ],
            "min" : [
                -10.792760848999023,
                -0.024573346599936485,
                -39.74842071533203
            ],
            "type" : "VEC3"
        },
        {
            "bufferView" : 1,
            "componentType" : 5126,
            "count" : 18954,
            "type" : "VEC3"
        },
        {
            "bufferView" : 2,
            "componentType" : 5126,
            "count" : 18954,
            "type" : "VEC2"
        },
        {
            "bufferView" : 3,
            "componentType" : 5126,
            "count" : 18954,
            "type" : "VEC2"
        },
        {
            "bufferView" : 4,
            "componentType" : 5123,
            "count" : 20226,
            "type" : "SCALAR"
        }
    ],
    "bufferViews" : [
        {
            "buffer" : 0,
            "byteLength" : 227448,
            "byteOffset" : 0
        },
        {
            "buffer" : 0,
            "byteLength" : 227448,
            "byteOffset" : 227448
        },
        {
            "buffer" : 0,
            "byteLength" : 151632,
            "byteOffset" : 454896
        },
        {
            "buffer" : 0,
            "byteLength" : 151632,
            "byteOffset" : 606528
        },
        {
            "buffer" : 0,
            "byteLength" : 40452,
            "byteOffset" : 758160
        }
    ],
    "samplers" : [
        {
            "magFilter" : 9729,
            "minFilter" : 9987
        }
    ],
    "buffers" : [
        {
            "byteLength" : 798612,
            "uri" : "Cymric(LonghairedManx).bin"
        }
    ]
}
